<svg xmlns="http://www.w3.org/2000/svg" viewBox="0 0 400 300" width="400" height="300" role="img" aria-label="Perfectly Cooked Steak">
  <defs>
    <linearGradient id="steak-bg" x1="0" y1="0" x2="1" y2="1">
      <stop offset="0%" stop-color="#f7f1e3" />
      <stop offset="100%" stop-color="#ded2b8" />
    </linearGradient>
    <radialGradient id="steak-glow" cx="50%" cy="38%" r="55%">
      <stop offset="0%" stop-color="#ffffff" stop-opacity="0.7" />
      <stop offset="100%" stop-color="#ffffff" stop-opacity="0" />
    </radialGradient>
  </defs>

  <rect width="400" height="300" fill="url(#steak-bg)" />
  <rect width="400" height="300" fill="url(#steak-glow)" />

  <g transform="translate(200 128)" fill="none" stroke="#430005"
     stroke-width="3.5" stroke-linecap="round" stroke-linejoin="round" opacity="0.72"
     color="#430005">
    
    <path d="M-52 -26c22-18 62-22 86-6 26 17 26 47 6 62-22 17-64 18-88 3-22-14-22-44-4-59Z" />
    <path d="M-30 -12c14-9 38-11 52-3" />
    <path d="M-34 4c16-9 42-11 58-2" />
    <path d="M-30 20c14-8 36-10 50-3" />
  </g>

  <text x="200" y="248" text-anchor="middle" font-family="Georgia, serif" font-size="21"
        fill="#430005" opacity="0.85">Perfectly Cooked Steak</text>
  <rect x="150" y="262" width="100" height="1.5" fill="#b08d34" opacity="0.6" />
</svg>